<mxfile host="app.diagrams.net" agent="Mozilla/5.0 (X11; Linux x86_64; rv:143.0) Gecko/20100101 Firefox/143.0" version="28.2.7">
  <diagram name="Page 1" id="Page-1">
    <mxGraphModel dx="648" dy="364" grid="1" gridSize="10" guides="1" tooltips="1" connect="1" arrows="1" fold="1" page="1" pageScale="1" pageWidth="827" pageHeight="1169" math="0" shadow="0">
      <root>
        <mxCell id="0" />
        <mxCell id="1" parent="0" />
        <UserObject label="" tags="Ã‰lectrique Lien" id="22">
          <mxCell parent="1" vertex="1" visible="0">
            <mxGeometry as="geometry" />
          </mxCell>
        </UserObject>
        <mxCell id="X-M7ohwvojVqTbKEK9S0-22" value="" style="pointerEvents=1;verticalLabelPosition=bottom;shadow=0;dashed=0;align=center;html=1;verticalAlign=top;shape=mxgraph.electrical.waveforms.sine_wave;strokeColor=light-dark(#000000,#3399FF);" parent="1" vertex="1">
          <mxGeometry x="80" y="240" width="240" height="120" as="geometry" />
        </mxCell>
        <mxCell id="X-M7ohwvojVqTbKEK9S0-23" value="&lt;div align=&quot;right&quot;&gt;V&lt;sub&gt;C&lt;/sub&gt;&lt;/div&gt;" style="text;html=1;whiteSpace=wrap;strokeColor=none;fillColor=none;align=right;verticalAlign=middle;rounded=0;fontColor=light-dark(#000000,#3399FF);" parent="1" vertex="1">
          <mxGeometry x="45" y="240" width="30" height="20" as="geometry" />
        </mxCell>
        <mxCell id="X-M7ohwvojVqTbKEK9S0-24" value="" style="endArrow=classic;html=1;rounded=0;endFill=1;" parent="1" edge="1">
          <mxGeometry width="50" height="50" relative="1" as="geometry">
            <mxPoint x="80" y="300" as="sourcePoint" />
            <mxPoint x="340" y="300" as="targetPoint" />
          </mxGeometry>
        </mxCell>
        <mxCell id="X-M7ohwvojVqTbKEK9S0-26" value="" style="endArrow=classic;html=1;rounded=0;endFill=1;" parent="1" edge="1">
          <mxGeometry width="50" height="50" relative="1" as="geometry">
            <mxPoint x="80" y="360" as="sourcePoint" />
            <mxPoint x="80" y="240" as="targetPoint" />
          </mxGeometry>
        </mxCell>
        <mxCell id="X-M7ohwvojVqTbKEK9S0-27" value="t" style="text;html=1;whiteSpace=wrap;strokeColor=none;fillColor=none;align=center;verticalAlign=middle;rounded=0;flipV=0;flipH=0;direction=south;rotation=0;" parent="1" vertex="1">
          <mxGeometry x="330" y="300" width="20" height="20" as="geometry" />
        </mxCell>
        <mxCell id="X-M7ohwvojVqTbKEK9S0-28" value="" style="endArrow=none;html=1;rounded=0;entryX=0.246;entryY=-0.01;entryDx=0;entryDy=0;entryPerimeter=0;dashed=1;" parent="1" edge="1">
          <mxGeometry width="50" height="50" relative="1" as="geometry">
            <mxPoint x="140" y="500" as="sourcePoint" />
            <mxPoint x="140" y="240" as="targetPoint" />
          </mxGeometry>
        </mxCell>
        <mxCell id="X-M7ohwvojVqTbKEK9S0-29" value="" style="endArrow=none;html=1;rounded=0;entryX=0.246;entryY=-0.01;entryDx=0;entryDy=0;entryPerimeter=0;dashed=1;" parent="1" edge="1">
          <mxGeometry width="50" height="50" relative="1" as="geometry">
            <mxPoint x="199.76" y="500" as="sourcePoint" />
            <mxPoint x="199.76" y="240" as="targetPoint" />
          </mxGeometry>
        </mxCell>
        <mxCell id="X-M7ohwvojVqTbKEK9S0-30" value="" style="endArrow=none;html=1;rounded=0;entryX=0.246;entryY=-0.01;entryDx=0;entryDy=0;entryPerimeter=0;dashed=1;" parent="1" edge="1">
          <mxGeometry width="50" height="50" relative="1" as="geometry">
            <mxPoint x="260" y="500" as="sourcePoint" />
            <mxPoint x="260" y="240" as="targetPoint" />
          </mxGeometry>
        </mxCell>
        <mxCell id="X-M7ohwvojVqTbKEK9S0-31" value="" style="endArrow=none;html=1;rounded=0;entryX=0.246;entryY=-0.01;entryDx=0;entryDy=0;entryPerimeter=0;dashed=1;" parent="1" edge="1">
          <mxGeometry width="50" height="50" relative="1" as="geometry">
            <mxPoint x="320" y="500" as="sourcePoint" />
            <mxPoint x="320" y="240" as="targetPoint" />
          </mxGeometry>
        </mxCell>
        <mxCell id="X-M7ohwvojVqTbKEK9S0-33" value="&lt;div align=&quot;right&quot;&gt;I&lt;sub&gt;C&lt;/sub&gt;&lt;/div&gt;" style="text;html=1;whiteSpace=wrap;strokeColor=none;fillColor=none;align=right;verticalAlign=middle;rounded=0;fontColor=light-dark(#000000,#33FF33);" parent="1" vertex="1">
          <mxGeometry x="45" y="380" width="30" height="20" as="geometry" />
        </mxCell>
        <mxCell id="X-M7ohwvojVqTbKEK9S0-34" value="" style="endArrow=classic;html=1;rounded=0;endFill=1;" parent="1" edge="1">
          <mxGeometry width="50" height="50" relative="1" as="geometry">
            <mxPoint x="80" y="440" as="sourcePoint" />
            <mxPoint x="340" y="440" as="targetPoint" />
          </mxGeometry>
        </mxCell>
        <mxCell id="X-M7ohwvojVqTbKEK9S0-35" value="" style="endArrow=classic;html=1;rounded=0;endFill=1;" parent="1" edge="1">
          <mxGeometry width="50" height="50" relative="1" as="geometry">
            <mxPoint x="80" y="500" as="sourcePoint" />
            <mxPoint x="80" y="380" as="targetPoint" />
          </mxGeometry>
        </mxCell>
        <mxCell id="X-M7ohwvojVqTbKEK9S0-36" value="t" style="text;html=1;whiteSpace=wrap;strokeColor=none;fillColor=none;align=center;verticalAlign=middle;rounded=0;" parent="1" vertex="1">
          <mxGeometry x="330" y="440" width="20" height="20" as="geometry" />
        </mxCell>
        <mxCell id="X-M7ohwvojVqTbKEK9S0-43" value="" style="curved=1;endArrow=none;html=1;rounded=0;exitX=0.25;exitY=0.125;exitDx=0;exitDy=0;exitPerimeter=0;entryX=0.75;entryY=0.874;entryDx=0;entryDy=0;entryPerimeter=0;endFill=0;strokeColor=light-dark(#000000,#33FF33);" parent="1" edge="1">
          <mxGeometry width="50" height="50" relative="1" as="geometry">
            <mxPoint x="80" y="395" as="sourcePoint" />
            <mxPoint x="200" y="484.88" as="targetPoint" />
            <Array as="points">
              <mxPoint x="100" y="395" />
              <mxPoint x="140" y="440" />
              <mxPoint x="180" y="485" />
            </Array>
          </mxGeometry>
        </mxCell>
        <mxCell id="X-M7ohwvojVqTbKEK9S0-44" value="" style="curved=1;endArrow=none;html=1;rounded=0;exitX=0.25;exitY=0.125;exitDx=0;exitDy=0;exitPerimeter=0;entryX=0.75;entryY=0.874;entryDx=0;entryDy=0;entryPerimeter=0;endFill=0;strokeColor=light-dark(#000000,#33FF33);" parent="1" edge="1">
          <mxGeometry width="50" height="50" relative="1" as="geometry">
            <mxPoint x="320" y="395" as="sourcePoint" />
            <mxPoint x="200" y="485" as="targetPoint" />
            <Array as="points">
              <mxPoint x="300" y="395" />
              <mxPoint x="260" y="440" />
              <mxPoint x="220" y="485" />
            </Array>
          </mxGeometry>
        </mxCell>
      </root>
    </mxGraphModel>
  </diagram>
</mxfile>
